<svg id="Capa_1" enable-background="new 0 0 512 512" height="512" viewBox="0 0 512 512" width="512" xmlns="http://www.w3.org/2000/svg"><g><g><g><g><path d="m466.719 511.932h-421.438c-8.284 0-15-6.716-15-15v-398.082h451.439v398.083c-.001 8.283-6.716 14.999-15.001 14.999z" fill="#f1f1f4"/><path d="m255.642 98.85v413.083h211.078c8.284 0 15-6.716 15-15v-398.083z" fill="#e2dff4"/></g><g><path d="m505.736 72.171-32.066-63.878c-2.545-5.07-7.733-8.27-13.406-8.27h-406.712c-5.547 0-10.641 3.061-13.244 7.958l-34.295 64.503s-5.927 15.235-5.927 23.768c0 27.9 22.915 50.518 51.183 50.518 28.267 0 51.183-22.618 51.183-50.518 0 27.9 22.915 50.518 51.183 50.518 28.267 0 51.183-22.618 51.183-50.518 0 27.9 22.915 50.518 51.183 50.518s51.183-22.618 51.183-50.518c0 27.9 22.915 50.518 51.183 50.518s51.183-22.618 51.183-50.518c0 27.9 22.915 50.518 51.183 50.518 28.267 0 51.183-22.618 51.183-50.518-.002-8.72-2.24-16.923-6.18-24.081z" fill="#de6d6e"/><path d="m505.736 72.171-32.066-63.878c-2.545-5.07-7.733-8.27-13.406-8.27h-204.622v146.737c.12.001.238.009.358.009 28.268 0 51.183-22.618 51.183-50.518 0 27.9 22.915 50.518 51.183 50.518s51.183-22.618 51.183-50.518c0 27.9 22.915 50.518 51.183 50.518 28.267 0 51.183-22.618 51.183-50.518-.001-8.719-2.239-16.922-6.179-24.08z" fill="#c43d53"/></g></g><g><path d="m497 511.977h-482c-8.284 0-15-6.716-15-15 0-7.645 6.197-13.841 13.841-13.841h484.317c7.644 0 13.841 6.197 13.841 13.841.001 8.285-6.715 15-14.999 15z" fill="#674e55"/><path d="m255.642 483.136v28.842h241.358c8.284 0 15-6.716 15-15 0-7.645-6.197-13.842-13.841-13.842z" fill="#433139"/></g></g><g><g><g><path d="m388.648 433.018h-266.059c-6.63 0-12.474-4.353-14.372-10.706l-27.206-91.062h349.978l-28.002 91.171c-1.934 6.298-7.751 10.597-14.339 10.597z" fill="#efc99d"/><path d="m255.642 331.25v101.767h133.007c6.588 0 12.405-4.299 14.339-10.596l28.002-91.171z" fill="#ebb35e"/></g><g><path d="m402.359 301.716c-24.359-24.685-80.94-41.987-146.866-41.987-65.971 0-122.584 17.325-146.915 42.037-15.395 1.025-27.567 13.829-27.567 29.484 0 16.324 13.234 29.558 29.558 29.558 10.035 0 18.896-5.005 24.239-12.65 5.343 7.645 14.204 12.65 24.238 12.65s18.895-5.005 24.238-12.65c5.343 7.645 14.204 12.65 24.238 12.65 10.035 0 18.895-5.005 24.238-12.65 5.343 7.645 14.204 12.65 24.239 12.65s18.895-5.005 24.238-12.65c5.343 7.645 14.204 12.65 24.239 12.65s18.896-5.005 24.238-12.65c5.343 7.645 14.204 12.65 24.238 12.65s18.896-5.005 24.239-12.65c5.343 7.645 14.204 12.65 24.238 12.65 16.325 0 29.558-13.234 29.558-29.558.002-16.013-12.734-29.042-28.628-29.534z" fill="#674e55"/><path d="m402.359 301.716c-24.341-24.667-80.856-41.96-146.718-41.986v101.067c.12.001.238.011.358.011 10.035 0 18.895-5.005 24.238-12.65 5.343 7.645 14.204 12.65 24.238 12.65 10.035 0 18.896-5.005 24.239-12.65 5.343 7.645 14.204 12.65 24.238 12.65s18.896-5.005 24.239-12.65c5.343 7.645 14.204 12.65 24.238 12.65 16.325 0 29.558-13.233 29.558-29.558.002-16.013-12.734-29.042-28.628-29.534z" fill="#543f46"/></g></g><g><circle cx="256" cy="253.35" fill="#de6d6e" r="31.862"/><path d="m256 221.489c-.12 0-.238.008-.358.009v63.705c.12.001.238.009.358.009 17.597 0 31.862-14.265 31.862-31.862s-14.265-31.861-31.862-31.861z" fill="#c43d53"/></g></g></g></svg>