<?xml version="1.0" encoding="iso-8859-1"?>
<!-- Generator: Adobe Illustrator 19.0.0, SVG Export Plug-In . SVG Version: 6.00 Build 0)  -->
<svg version="1.1" id="Capa_1" xmlns="http://www.w3.org/2000/svg" xmlns:xlink="http://www.w3.org/1999/xlink" x="0px" y="0px"
	 viewBox="0 0 512 512" style="enable-background:new 0 0 512 512;" xml:space="preserve">
<path style="fill:#EB7937;" d="M401.69,396.156c-16.922,17.47-48.967,8.907-55.711-3.16c-8.466-15.139-31.409-14.539-45.842-4.917
	l0,0c-13.241,8.828-28.69,17.655-44.138,17.655s-30.897-8.828-44.138-17.655l0,0c-14.433-9.622-37.376-10.214-45.842,4.917
	c-6.753,12.067-38.797,20.621-55.711,3.16c-9.931-10.249-25.953-13.983-39.689-10.231v19.791c0,39.018,31.629,79.801,70.638,79.801
	h229.482c39.009,0,70.638-40.783,70.638-79.801v-19.791C427.644,382.173,411.622,385.908,401.69,396.156z"/>
<path style="fill:#F7B563;" d="M479.029,328.042c-7.857-2.048-15.033-6.02-20.754-11.785c-24.814-25.026-96.715-86.74-202.275-86.74
	s-177.461,61.714-202.284,86.74c-5.711,5.764-12.897,9.737-20.754,11.785C14.001,332.994,0,350.243,0,370.759
	c0,4.732,0.742,9.287,2.119,13.559c8.351,25.9,34.304,32.371,56.399,16.499c0.45-0.318,0.909-0.644,1.377-0.962
	c15.06-10.266,37.729-7.627,50.414,5.464c16.922,17.47,48.967,8.907,55.711-3.16c8.466-15.13,31.409-14.539,45.842-4.917l0,0
	c13.241,8.828,28.69,17.655,44.138,17.655s30.897-8.828,44.138-17.655l0,0c14.433-9.622,37.376-10.214,45.842,4.917
	c6.753,12.067,38.797,20.621,55.711,3.16c12.685-13.091,35.354-15.731,50.414-5.464c0.468,0.318,0.927,0.636,1.377,0.962
	c22.104,15.872,48.049,9.401,56.399-16.499c1.377-4.273,2.119-8.828,2.119-13.559C512,350.243,497.999,332.994,479.029,328.042z"/>
<g>
	<path style="fill:#FFFFFF;" d="M185.379,300.138c-2.26,0-4.52-0.865-6.241-2.586c-3.452-3.452-3.452-9.031,0-12.482l8.828-8.828
		c3.443-3.452,9.039-3.452,12.482,0c3.452,3.452,3.452,9.031,0,12.482l-8.828,8.828
		C189.899,299.273,187.639,300.138,185.379,300.138z"/>
	<path style="fill:#FFFFFF;" d="M291.31,300.138c-2.26,0-4.52-0.865-6.241-2.586c-3.452-3.452-3.452-9.031,0-12.482l8.828-8.828
		c3.443-3.452,9.039-3.452,12.482,0c3.452,3.452,3.452,9.031,0,12.482l-8.828,8.828C295.83,299.273,293.57,300.138,291.31,300.138z"
		/>
	<path style="fill:#FFFFFF;" d="M247.172,344.276c-2.26,0-4.52-0.865-6.241-2.586l-8.828-8.828c-3.452-3.452-3.452-9.031,0-12.482
		c3.443-3.452,9.039-3.452,12.482,0l8.828,8.828c3.452,3.452,3.452,9.031,0,12.482C251.692,343.411,249.432,344.276,247.172,344.276
		z"/>
	<path style="fill:#FFFFFF;" d="M88.276,344.276c-2.26,0-4.52-0.865-6.241-2.586c-3.452-3.452-3.452-9.031,0-12.482l8.828-8.828
		c3.443-3.452,9.039-3.452,12.482,0c3.452,3.452,3.452,9.031,0,12.482l-8.828,8.828C92.796,343.411,90.536,344.276,88.276,344.276z"
		/>
	<path style="fill:#FFFFFF;" d="M167.724,361.931c-2.26,0-4.52-0.865-6.241-2.586l-8.828-8.828c-3.452-3.452-3.452-9.031,0-12.482
		c3.443-3.452,9.039-3.452,12.482,0l8.828,8.828c3.452,3.452,3.452,9.031,0,12.482C172.244,361.066,169.984,361.931,167.724,361.931
		z"/>
	<path style="fill:#FFFFFF;" d="M397.241,326.621c-2.26,0-4.52-0.865-6.241-2.586c-3.452-3.452-3.452-9.031,0-12.482l8.828-8.828
		c3.443-3.452,9.039-3.452,12.482,0c3.452,3.452,3.452,9.031,0,12.482l-8.828,8.828
		C401.761,325.757,399.501,326.621,397.241,326.621z"/>
	<path style="fill:#FFFFFF;" d="M344.276,361.931c-2.26,0-4.52-0.865-6.241-2.586l-8.828-8.828c-3.452-3.452-3.452-9.031,0-12.482
		c3.443-3.452,9.039-3.452,12.482,0l8.828,8.828c3.452,3.452,3.452,9.031,0,12.482C348.796,361.066,346.536,361.931,344.276,361.931
		z"/>
</g>
<g>
	<path style="fill:#AFB6BB;" d="M256,114.76c-4.873,0-8.828-3.955-8.828-8.828V35.311c0-4.873,3.955-8.828,8.828-8.828
		c4.873,0,8.828,3.955,8.828,8.828v70.621C264.828,110.805,260.873,114.76,256,114.76z"/>
	<path style="fill:#AFB6BB;" d="M256,176.553c-4.873,0-8.828-3.955-8.828-8.828v-26.483c0-4.873,3.955-8.828,8.828-8.828
		c4.873,0,8.828,3.955,8.828,8.828v26.483C264.828,172.598,260.873,176.553,256,176.553z"/>
	<path style="fill:#AFB6BB;" d="M317.793,79.449c-4.873,0-8.828-3.955-8.828-8.828V52.966c0-4.873,3.955-8.828,8.828-8.828
		c4.873,0,8.828,3.955,8.828,8.828v17.655C326.621,75.495,322.666,79.449,317.793,79.449z"/>
	<path style="fill:#AFB6BB;" d="M317.793,203.035c-4.873,0-8.828-3.955-8.828-8.828V105.93c0-4.873,3.955-8.828,8.828-8.828
		c4.873,0,8.828,3.955,8.828,8.828v88.276C326.621,199.081,322.666,203.035,317.793,203.035z"/>
	<path style="fill:#AFB6BB;" d="M194.207,79.449c-4.873,0-8.828-3.955-8.828-8.828V52.966c0-4.873,3.955-8.828,8.828-8.828
		s8.828,3.955,8.828,8.828v17.655C203.034,75.495,199.08,79.449,194.207,79.449z"/>
	<path style="fill:#AFB6BB;" d="M194.207,203.035c-4.873,0-8.828-3.955-8.828-8.828V105.93c0-4.873,3.955-8.828,8.828-8.828
		s8.828,3.955,8.828,8.828v88.276C203.034,199.081,199.08,203.035,194.207,203.035z"/>
</g>
<g>
</g>
<g>
</g>
<g>
</g>
<g>
</g>
<g>
</g>
<g>
</g>
<g>
</g>
<g>
</g>
<g>
</g>
<g>
</g>
<g>
</g>
<g>
</g>
<g>
</g>
<g>
</g>
<g>
</g>
</svg>
